<mxfile host="app.diagrams.net" modified="2023-10-26T14:02:27.733Z" agent="Mozilla/5.0 (Windows NT 10.0; Win64; x64) AppleWebKit/537.36 (KHTML, like Gecko) Chrome/118.0.0.0 Safari/537.36" etag="BfwaMwBuPAhnbfNp3wUd" version="22.0.8" type="device">
  <diagram name="Страница — 1" id="o0bF3wpXmXzcwrTErUHH">
    <mxGraphModel dx="1434" dy="1937" grid="1" gridSize="10" guides="1" tooltips="1" connect="1" arrows="1" fold="1" page="1" pageScale="1" pageWidth="827" pageHeight="1169" math="0" shadow="0">
      <root>
        <mxCell id="0" />
        <mxCell id="1" parent="0" />
        <mxCell id="oqzU9KTagzX72IuimsYK-4" value="MainForm" style="html=1;whiteSpace=wrap;" vertex="1" parent="1">
          <mxGeometry x="710" y="-360" width="110" height="50" as="geometry" />
        </mxCell>
        <mxCell id="oqzU9KTagzX72IuimsYK-5" value="DataTools" style="html=1;whiteSpace=wrap;" vertex="1" parent="1">
          <mxGeometry x="200" y="-230" width="110" height="50" as="geometry" />
        </mxCell>
        <mxCell id="oqzU9KTagzX72IuimsYK-6" value="IdGenerator" style="html=1;whiteSpace=wrap;" vertex="1" parent="1">
          <mxGeometry x="800" y="220" width="110" height="50" as="geometry" />
        </mxCell>
        <mxCell id="oqzU9KTagzX72IuimsYK-7" value="ValueValidator" style="html=1;whiteSpace=wrap;" vertex="1" parent="1">
          <mxGeometry x="800" y="160" width="110" height="50" as="geometry" />
        </mxCell>
        <mxCell id="oqzU9KTagzX72IuimsYK-8" value="Address" style="html=1;whiteSpace=wrap;" vertex="1" parent="1">
          <mxGeometry x="380" y="395" width="110" height="50" as="geometry" />
        </mxCell>
        <mxCell id="oqzU9KTagzX72IuimsYK-9" value="Customer" style="html=1;whiteSpace=wrap;" vertex="1" parent="1">
          <mxGeometry x="450" y="190" width="110" height="50" as="geometry" />
        </mxCell>
        <mxCell id="oqzU9KTagzX72IuimsYK-10" value="Item" style="html=1;whiteSpace=wrap;" vertex="1" parent="1">
          <mxGeometry x="1000" y="270" width="110" height="50" as="geometry" />
        </mxCell>
        <mxCell id="oqzU9KTagzX72IuimsYK-11" value="Order" style="html=1;whiteSpace=wrap;" vertex="1" parent="1">
          <mxGeometry x="580" y="395" width="110" height="50" as="geometry" />
        </mxCell>
        <mxCell id="oqzU9KTagzX72IuimsYK-12" value="Cart" style="html=1;whiteSpace=wrap;" vertex="1" parent="1">
          <mxGeometry x="680" y="270" width="110" height="50" as="geometry" />
        </mxCell>
        <mxCell id="oqzU9KTagzX72IuimsYK-13" value="Store" style="html=1;whiteSpace=wrap;" vertex="1" parent="1">
          <mxGeometry x="827" y="100" width="110" height="50" as="geometry" />
        </mxCell>
        <mxCell id="oqzU9KTagzX72IuimsYK-15" value="PercentDiscount" style="html=1;whiteSpace=wrap;" vertex="1" parent="1">
          <mxGeometry x="304" y="519.5" width="110" height="50" as="geometry" />
        </mxCell>
        <mxCell id="oqzU9KTagzX72IuimsYK-16" value="PointsDiscount" style="html=1;whiteSpace=wrap;" vertex="1" parent="1">
          <mxGeometry x="160" y="519.5" width="110" height="50" as="geometry" />
        </mxCell>
        <mxCell id="oqzU9KTagzX72IuimsYK-17" value="«interface»&lt;br&gt;&lt;b&gt;IDiscount&lt;/b&gt;" style="html=1;whiteSpace=wrap;" vertex="1" parent="1">
          <mxGeometry x="230" y="349.5" width="110" height="50" as="geometry" />
        </mxCell>
        <mxCell id="oqzU9KTagzX72IuimsYK-18" value="«enum»&lt;br&gt;&lt;b&gt;OrderStatus&lt;/b&gt;" style="html=1;whiteSpace=wrap;" vertex="1" parent="1">
          <mxGeometry x="750" y="535" width="110" height="50" as="geometry" />
        </mxCell>
        <mxCell id="oqzU9KTagzX72IuimsYK-19" value="«enum»&lt;br&gt;&lt;b&gt;Category&lt;/b&gt;" style="html=1;whiteSpace=wrap;" vertex="1" parent="1">
          <mxGeometry x="1180" y="380" width="110" height="50" as="geometry" />
        </mxCell>
        <mxCell id="oqzU9KTagzX72IuimsYK-20" value="PriorityOrder" style="html=1;whiteSpace=wrap;" vertex="1" parent="1">
          <mxGeometry x="580" y="535" width="110" height="50" as="geometry" />
        </mxCell>
        <mxCell id="oqzU9KTagzX72IuimsYK-21" value="" style="endArrow=block;dashed=1;endFill=0;endSize=12;html=1;rounded=0;exitX=0.509;exitY=-0.12;exitDx=0;exitDy=0;exitPerimeter=0;entryX=0.5;entryY=1;entryDx=0;entryDy=0;edgeStyle=orthogonalEdgeStyle;" edge="1" parent="1" source="oqzU9KTagzX72IuimsYK-15" target="oqzU9KTagzX72IuimsYK-17">
          <mxGeometry width="160" relative="1" as="geometry">
            <mxPoint x="30" y="689.5" as="sourcePoint" />
            <mxPoint x="410" y="399.5" as="targetPoint" />
          </mxGeometry>
        </mxCell>
        <mxCell id="oqzU9KTagzX72IuimsYK-27" value="" style="endArrow=block;dashed=1;endFill=0;endSize=12;html=1;rounded=0;entryX=0.5;entryY=1;entryDx=0;entryDy=0;edgeStyle=orthogonalEdgeStyle;exitX=0.5;exitY=0;exitDx=0;exitDy=0;" edge="1" parent="1" source="oqzU9KTagzX72IuimsYK-16" target="oqzU9KTagzX72IuimsYK-17">
          <mxGeometry width="160" relative="1" as="geometry">
            <mxPoint x="240" y="558.5" as="sourcePoint" />
            <mxPoint x="400" y="558.5" as="targetPoint" />
          </mxGeometry>
        </mxCell>
        <mxCell id="oqzU9KTagzX72IuimsYK-34" value="" style="endArrow=open;html=1;edgeStyle=orthogonalEdgeStyle;rounded=0;align=left;verticalAlign=bottom;endSize=12;startArrow=diamondThin;startSize=14;startFill=0;labelBackgroundColor=none;exitX=1;exitY=0.5;exitDx=0;exitDy=0;entryX=0;entryY=0.5;entryDx=0;entryDy=0;" edge="1" parent="1" source="oqzU9KTagzX72IuimsYK-12" target="oqzU9KTagzX72IuimsYK-10">
          <mxGeometry relative="1" as="geometry">
            <mxPoint x="840" y="299" as="sourcePoint" />
            <mxPoint x="1000" y="299" as="targetPoint" />
          </mxGeometry>
        </mxCell>
        <mxCell id="oqzU9KTagzX72IuimsYK-35" value="1" style="edgeLabel;resizable=0;html=1;align=left;verticalAlign=bottom;labelBackgroundColor=none;fontSize=14;" connectable="0" vertex="1" parent="oqzU9KTagzX72IuimsYK-34">
          <mxGeometry x="-1" relative="1" as="geometry">
            <mxPoint x="10" as="offset" />
          </mxGeometry>
        </mxCell>
        <mxCell id="oqzU9KTagzX72IuimsYK-36" value="n" style="edgeLabel;resizable=0;html=1;align=right;verticalAlign=bottom;labelBackgroundColor=none;fontSize=14;" connectable="0" vertex="1" parent="oqzU9KTagzX72IuimsYK-34">
          <mxGeometry x="1" relative="1" as="geometry">
            <mxPoint x="-10" as="offset" />
          </mxGeometry>
        </mxCell>
        <mxCell id="oqzU9KTagzX72IuimsYK-37" value="" style="endArrow=none;html=1;edgeStyle=orthogonalEdgeStyle;rounded=0;exitX=0.5;exitY=1;exitDx=0;exitDy=0;entryX=0.5;entryY=0;entryDx=0;entryDy=0;" edge="1" parent="1" source="oqzU9KTagzX72IuimsYK-11" target="oqzU9KTagzX72IuimsYK-20">
          <mxGeometry relative="1" as="geometry">
            <mxPoint x="650" y="605" as="sourcePoint" />
            <mxPoint x="810" y="605" as="targetPoint" />
          </mxGeometry>
        </mxCell>
        <mxCell id="oqzU9KTagzX72IuimsYK-38" value="parent" style="edgeLabel;resizable=0;html=1;align=left;verticalAlign=bottom;" connectable="0" vertex="1" parent="oqzU9KTagzX72IuimsYK-37">
          <mxGeometry x="-1" relative="1" as="geometry">
            <mxPoint x="-35" y="20" as="offset" />
          </mxGeometry>
        </mxCell>
        <mxCell id="oqzU9KTagzX72IuimsYK-39" value="child" style="edgeLabel;resizable=0;html=1;align=right;verticalAlign=bottom;" connectable="0" vertex="1" parent="oqzU9KTagzX72IuimsYK-37">
          <mxGeometry x="1" relative="1" as="geometry">
            <mxPoint x="-5" as="offset" />
          </mxGeometry>
        </mxCell>
        <mxCell id="oqzU9KTagzX72IuimsYK-40" value="" style="endArrow=open;html=1;edgeStyle=orthogonalEdgeStyle;rounded=0;labelBorderColor=none;fontColor=default;fontStyle=0;align=left;verticalAlign=bottom;endSize=12;startArrow=diamondThin;startSize=14;startFill=1;labelBackgroundColor=none;entryX=0.5;entryY=0;entryDx=0;entryDy=0;exitX=0;exitY=0.5;exitDx=0;exitDy=0;" edge="1" parent="1" source="oqzU9KTagzX72IuimsYK-9" target="oqzU9KTagzX72IuimsYK-17">
          <mxGeometry relative="1" as="geometry">
            <mxPoint x="254" y="300" as="sourcePoint" />
            <mxPoint x="414" y="300" as="targetPoint" />
          </mxGeometry>
        </mxCell>
        <mxCell id="oqzU9KTagzX72IuimsYK-41" value="1" style="edgeLabel;resizable=0;html=1;align=left;verticalAlign=bottom;labelBackgroundColor=none;fontSize=14;" connectable="0" vertex="1" parent="oqzU9KTagzX72IuimsYK-40">
          <mxGeometry x="-1" relative="1" as="geometry">
            <mxPoint x="-20" y="-5" as="offset" />
          </mxGeometry>
        </mxCell>
        <mxCell id="oqzU9KTagzX72IuimsYK-42" value="n" style="edgeLabel;resizable=0;html=1;align=right;verticalAlign=bottom;labelBackgroundColor=none;fontSize=14;" connectable="0" vertex="1" parent="oqzU9KTagzX72IuimsYK-40">
          <mxGeometry x="1" relative="1" as="geometry">
            <mxPoint x="15" y="-10" as="offset" />
          </mxGeometry>
        </mxCell>
        <mxCell id="oqzU9KTagzX72IuimsYK-43" value="" style="endArrow=open;html=1;edgeStyle=orthogonalEdgeStyle;rounded=0;labelBorderColor=none;fontColor=default;fontStyle=0;align=left;verticalAlign=bottom;endSize=12;startArrow=diamondThin;startSize=14;startFill=1;labelBackgroundColor=none;exitX=0.25;exitY=1;exitDx=0;exitDy=0;entryX=0.5;entryY=0;entryDx=0;entryDy=0;" edge="1" parent="1" source="oqzU9KTagzX72IuimsYK-9" target="oqzU9KTagzX72IuimsYK-8">
          <mxGeometry relative="1" as="geometry">
            <mxPoint x="560" y="160" as="sourcePoint" />
            <mxPoint x="478" y="350" as="targetPoint" />
            <Array as="points">
              <mxPoint x="478" y="320" />
              <mxPoint x="435" y="320" />
            </Array>
          </mxGeometry>
        </mxCell>
        <mxCell id="oqzU9KTagzX72IuimsYK-44" value="1" style="edgeLabel;resizable=0;html=1;align=left;verticalAlign=bottom;labelBackgroundColor=none;fontSize=14;" connectable="0" vertex="1" parent="oqzU9KTagzX72IuimsYK-43">
          <mxGeometry x="-1" relative="1" as="geometry">
            <mxPoint x="10" y="30" as="offset" />
          </mxGeometry>
        </mxCell>
        <mxCell id="oqzU9KTagzX72IuimsYK-45" value="1" style="edgeLabel;resizable=0;html=1;align=right;verticalAlign=bottom;labelBackgroundColor=none;fontSize=14;" connectable="0" vertex="1" parent="oqzU9KTagzX72IuimsYK-43">
          <mxGeometry x="1" relative="1" as="geometry">
            <mxPoint x="15" y="-10" as="offset" />
          </mxGeometry>
        </mxCell>
        <mxCell id="oqzU9KTagzX72IuimsYK-46" value="" style="endArrow=open;html=1;edgeStyle=orthogonalEdgeStyle;rounded=0;labelBorderColor=none;fontColor=default;fontStyle=0;align=left;verticalAlign=bottom;endSize=12;startArrow=diamondThin;startSize=14;startFill=1;labelBackgroundColor=none;entryX=0.5;entryY=0;entryDx=0;entryDy=0;exitX=1;exitY=0.75;exitDx=0;exitDy=0;" edge="1" parent="1" source="oqzU9KTagzX72IuimsYK-9" target="oqzU9KTagzX72IuimsYK-12">
          <mxGeometry relative="1" as="geometry">
            <mxPoint x="570" y="225" as="sourcePoint" />
            <mxPoint x="755" y="290" as="targetPoint" />
            <Array as="points">
              <mxPoint x="735" y="228" />
            </Array>
          </mxGeometry>
        </mxCell>
        <mxCell id="oqzU9KTagzX72IuimsYK-47" value="1" style="edgeLabel;resizable=0;html=1;align=left;verticalAlign=bottom;labelBackgroundColor=none;fontSize=14;" connectable="0" vertex="1" parent="oqzU9KTagzX72IuimsYK-46">
          <mxGeometry x="-1" relative="1" as="geometry">
            <mxPoint x="10" y="-7" as="offset" />
          </mxGeometry>
        </mxCell>
        <mxCell id="oqzU9KTagzX72IuimsYK-48" value="1" style="edgeLabel;resizable=0;html=1;align=right;verticalAlign=bottom;labelBackgroundColor=none;fontSize=14;" connectable="0" vertex="1" parent="oqzU9KTagzX72IuimsYK-46">
          <mxGeometry x="1" relative="1" as="geometry">
            <mxPoint x="15" y="-10" as="offset" />
          </mxGeometry>
        </mxCell>
        <mxCell id="oqzU9KTagzX72IuimsYK-49" value="" style="endArrow=open;html=1;edgeStyle=orthogonalEdgeStyle;rounded=0;labelBorderColor=none;fontColor=default;fontStyle=0;align=left;verticalAlign=bottom;endSize=12;startArrow=diamondThin;startSize=14;startFill=1;labelBackgroundColor=none;exitX=0;exitY=0.5;exitDx=0;exitDy=0;entryX=0.318;entryY=-0.04;entryDx=0;entryDy=0;entryPerimeter=0;" edge="1" parent="1" source="oqzU9KTagzX72IuimsYK-13" target="oqzU9KTagzX72IuimsYK-9">
          <mxGeometry relative="1" as="geometry">
            <mxPoint x="580" y="130" as="sourcePoint" />
            <mxPoint x="740" y="130" as="targetPoint" />
          </mxGeometry>
        </mxCell>
        <mxCell id="oqzU9KTagzX72IuimsYK-50" value="1" style="edgeLabel;resizable=0;html=1;align=left;verticalAlign=bottom;labelBackgroundColor=none;fontSize=14;" connectable="0" vertex="1" parent="oqzU9KTagzX72IuimsYK-49">
          <mxGeometry x="-1" relative="1" as="geometry">
            <mxPoint x="-17" as="offset" />
          </mxGeometry>
        </mxCell>
        <mxCell id="oqzU9KTagzX72IuimsYK-51" value="n" style="edgeLabel;resizable=0;html=1;align=right;verticalAlign=bottom;labelBackgroundColor=none;fontSize=14;" connectable="0" vertex="1" parent="oqzU9KTagzX72IuimsYK-49">
          <mxGeometry x="1" relative="1" as="geometry">
            <mxPoint x="25" y="-10" as="offset" />
          </mxGeometry>
        </mxCell>
        <mxCell id="oqzU9KTagzX72IuimsYK-52" value="" style="endArrow=open;html=1;edgeStyle=orthogonalEdgeStyle;rounded=0;labelBorderColor=none;fontColor=default;fontStyle=0;align=left;verticalAlign=bottom;endSize=12;startArrow=diamondThin;startSize=14;startFill=1;labelBackgroundColor=none;entryX=0.5;entryY=0;entryDx=0;entryDy=0;exitX=0.75;exitY=1;exitDx=0;exitDy=0;" edge="1" parent="1" source="oqzU9KTagzX72IuimsYK-9" target="oqzU9KTagzX72IuimsYK-11">
          <mxGeometry relative="1" as="geometry">
            <mxPoint x="640" y="230" as="sourcePoint" />
            <mxPoint x="640" y="350" as="targetPoint" />
          </mxGeometry>
        </mxCell>
        <mxCell id="oqzU9KTagzX72IuimsYK-53" value="1" style="edgeLabel;resizable=0;html=1;align=left;verticalAlign=bottom;labelBackgroundColor=none;fontSize=14;" connectable="0" vertex="1" parent="oqzU9KTagzX72IuimsYK-52">
          <mxGeometry x="-1" relative="1" as="geometry">
            <mxPoint x="5" y="30" as="offset" />
          </mxGeometry>
        </mxCell>
        <mxCell id="oqzU9KTagzX72IuimsYK-54" value="n" style="edgeLabel;resizable=0;html=1;align=right;verticalAlign=bottom;labelBackgroundColor=none;fontSize=14;" connectable="0" vertex="1" parent="oqzU9KTagzX72IuimsYK-52">
          <mxGeometry x="1" relative="1" as="geometry">
            <mxPoint x="15" y="-10" as="offset" />
          </mxGeometry>
        </mxCell>
        <mxCell id="oqzU9KTagzX72IuimsYK-55" value="" style="endArrow=open;html=1;edgeStyle=orthogonalEdgeStyle;rounded=0;labelBorderColor=none;fontColor=default;fontStyle=0;align=left;verticalAlign=bottom;endSize=12;startArrow=diamondThin;startSize=14;startFill=1;labelBackgroundColor=none;entryX=0.5;entryY=0;entryDx=0;entryDy=0;exitX=0.75;exitY=1;exitDx=0;exitDy=0;" edge="1" parent="1" source="oqzU9KTagzX72IuimsYK-11" target="oqzU9KTagzX72IuimsYK-18">
          <mxGeometry relative="1" as="geometry">
            <mxPoint x="560" y="260" as="sourcePoint" />
            <mxPoint x="815" y="405" as="targetPoint" />
          </mxGeometry>
        </mxCell>
        <mxCell id="oqzU9KTagzX72IuimsYK-56" value="1" style="edgeLabel;resizable=0;html=1;align=left;verticalAlign=bottom;labelBackgroundColor=none;fontSize=14;" connectable="0" vertex="1" parent="oqzU9KTagzX72IuimsYK-55">
          <mxGeometry x="-1" relative="1" as="geometry">
            <mxPoint x="10" y="20" as="offset" />
          </mxGeometry>
        </mxCell>
        <mxCell id="oqzU9KTagzX72IuimsYK-57" value="1" style="edgeLabel;resizable=0;html=1;align=right;verticalAlign=bottom;labelBackgroundColor=none;fontSize=14;" connectable="0" vertex="1" parent="oqzU9KTagzX72IuimsYK-55">
          <mxGeometry x="1" relative="1" as="geometry">
            <mxPoint x="15" y="-10" as="offset" />
          </mxGeometry>
        </mxCell>
        <mxCell id="oqzU9KTagzX72IuimsYK-58" value="" style="endArrow=open;html=1;edgeStyle=orthogonalEdgeStyle;rounded=0;labelBorderColor=none;fontColor=default;fontStyle=0;align=left;verticalAlign=bottom;endSize=12;startArrow=diamondThin;startSize=14;startFill=1;labelBackgroundColor=none;entryX=0.5;entryY=0;entryDx=0;entryDy=0;exitX=1;exitY=0.75;exitDx=0;exitDy=0;" edge="1" parent="1" source="oqzU9KTagzX72IuimsYK-10" target="oqzU9KTagzX72IuimsYK-19">
          <mxGeometry relative="1" as="geometry">
            <mxPoint x="1130" y="360" as="sourcePoint" />
            <mxPoint x="1272" y="450" as="targetPoint" />
          </mxGeometry>
        </mxCell>
        <mxCell id="oqzU9KTagzX72IuimsYK-59" value="1" style="edgeLabel;resizable=0;html=1;align=left;verticalAlign=bottom;labelBackgroundColor=none;fontSize=14;" connectable="0" vertex="1" parent="oqzU9KTagzX72IuimsYK-58">
          <mxGeometry x="-1" relative="1" as="geometry">
            <mxPoint x="10" y="3" as="offset" />
          </mxGeometry>
        </mxCell>
        <mxCell id="oqzU9KTagzX72IuimsYK-60" value="1" style="edgeLabel;resizable=0;html=1;align=right;verticalAlign=bottom;labelBackgroundColor=none;fontSize=14;" connectable="0" vertex="1" parent="oqzU9KTagzX72IuimsYK-58">
          <mxGeometry x="1" relative="1" as="geometry">
            <mxPoint x="15" y="-10" as="offset" />
          </mxGeometry>
        </mxCell>
        <mxCell id="oqzU9KTagzX72IuimsYK-61" value="" style="endArrow=open;html=1;edgeStyle=orthogonalEdgeStyle;rounded=0;labelBorderColor=none;fontColor=default;fontStyle=0;align=left;verticalAlign=bottom;endSize=12;startArrow=diamondThin;startSize=14;startFill=1;labelBackgroundColor=none;entryX=1;entryY=0.5;entryDx=0;entryDy=0;exitX=0;exitY=0.5;exitDx=0;exitDy=0;" edge="1" parent="1" source="oqzU9KTagzX72IuimsYK-11" target="oqzU9KTagzX72IuimsYK-8">
          <mxGeometry relative="1" as="geometry">
            <mxPoint x="680" y="385" as="sourcePoint" />
            <mxPoint x="815" y="545" as="targetPoint" />
          </mxGeometry>
        </mxCell>
        <mxCell id="oqzU9KTagzX72IuimsYK-62" value="1" style="edgeLabel;resizable=0;html=1;align=left;verticalAlign=bottom;labelBackgroundColor=none;fontSize=14;" connectable="0" vertex="1" parent="oqzU9KTagzX72IuimsYK-61">
          <mxGeometry x="-1" relative="1" as="geometry">
            <mxPoint x="-20" as="offset" />
          </mxGeometry>
        </mxCell>
        <mxCell id="oqzU9KTagzX72IuimsYK-63" value="1" style="edgeLabel;resizable=0;html=1;align=right;verticalAlign=bottom;labelBackgroundColor=none;fontSize=14;" connectable="0" vertex="1" parent="oqzU9KTagzX72IuimsYK-61">
          <mxGeometry x="1" relative="1" as="geometry">
            <mxPoint x="20" as="offset" />
          </mxGeometry>
        </mxCell>
        <mxCell id="oqzU9KTagzX72IuimsYK-67" value="" style="endArrow=open;html=1;edgeStyle=orthogonalEdgeStyle;rounded=0;align=left;verticalAlign=bottom;endSize=12;startArrow=diamondThin;startSize=14;startFill=0;labelBackgroundColor=none;exitX=1;exitY=0.5;exitDx=0;exitDy=0;entryX=0.5;entryY=1;entryDx=0;entryDy=0;" edge="1" parent="1" source="oqzU9KTagzX72IuimsYK-11" target="oqzU9KTagzX72IuimsYK-10">
          <mxGeometry relative="1" as="geometry">
            <mxPoint x="850" y="309" as="sourcePoint" />
            <mxPoint x="1010" y="309" as="targetPoint" />
          </mxGeometry>
        </mxCell>
        <mxCell id="oqzU9KTagzX72IuimsYK-68" value="1" style="edgeLabel;resizable=0;html=1;align=left;verticalAlign=bottom;labelBackgroundColor=none;fontSize=14;" connectable="0" vertex="1" parent="oqzU9KTagzX72IuimsYK-67">
          <mxGeometry x="-1" relative="1" as="geometry">
            <mxPoint x="10" as="offset" />
          </mxGeometry>
        </mxCell>
        <mxCell id="oqzU9KTagzX72IuimsYK-69" value="n" style="edgeLabel;resizable=0;html=1;align=right;verticalAlign=bottom;labelBackgroundColor=none;fontSize=14;" connectable="0" vertex="1" parent="oqzU9KTagzX72IuimsYK-67">
          <mxGeometry x="1" relative="1" as="geometry">
            <mxPoint x="25" y="30" as="offset" />
          </mxGeometry>
        </mxCell>
        <mxCell id="oqzU9KTagzX72IuimsYK-70" value="" style="endArrow=open;html=1;edgeStyle=orthogonalEdgeStyle;rounded=0;labelBorderColor=none;fontColor=default;fontStyle=0;align=left;verticalAlign=bottom;endSize=12;startArrow=diamondThin;startSize=14;startFill=1;labelBackgroundColor=none;entryX=0.75;entryY=0;entryDx=0;entryDy=0;exitX=1;exitY=0.5;exitDx=0;exitDy=0;" edge="1" parent="1" source="oqzU9KTagzX72IuimsYK-13" target="oqzU9KTagzX72IuimsYK-10">
          <mxGeometry relative="1" as="geometry">
            <mxPoint x="1010" y="105" as="sourcePoint" />
            <mxPoint x="1135" y="190" as="targetPoint" />
          </mxGeometry>
        </mxCell>
        <mxCell id="oqzU9KTagzX72IuimsYK-71" value="1" style="edgeLabel;resizable=0;html=1;align=left;verticalAlign=bottom;labelBackgroundColor=none;fontSize=14;" connectable="0" vertex="1" parent="oqzU9KTagzX72IuimsYK-70">
          <mxGeometry x="-1" relative="1" as="geometry">
            <mxPoint x="10" y="-5" as="offset" />
          </mxGeometry>
        </mxCell>
        <mxCell id="oqzU9KTagzX72IuimsYK-72" value="1" style="edgeLabel;resizable=0;html=1;align=right;verticalAlign=bottom;labelBackgroundColor=none;fontSize=14;" connectable="0" vertex="1" parent="oqzU9KTagzX72IuimsYK-70">
          <mxGeometry x="1" relative="1" as="geometry">
            <mxPoint x="15" y="-10" as="offset" />
          </mxGeometry>
        </mxCell>
        <mxCell id="oqzU9KTagzX72IuimsYK-75" value="&amp;lt;Use&amp;gt;" style="endArrow=open;endSize=12;dashed=1;html=1;rounded=0;fontSize=14;exitX=1;exitY=0.5;exitDx=0;exitDy=0;edgeStyle=orthogonalEdgeStyle;entryX=0.5;entryY=0;entryDx=0;entryDy=0;" edge="1" parent="1" source="oqzU9KTagzX72IuimsYK-7" target="oqzU9KTagzX72IuimsYK-10">
          <mxGeometry width="160" relative="1" as="geometry">
            <mxPoint x="1161" y="160" as="sourcePoint" />
            <mxPoint x="1321" y="160" as="targetPoint" />
            <mxPoint as="offset" />
          </mxGeometry>
        </mxCell>
        <mxCell id="oqzU9KTagzX72IuimsYK-76" value="&amp;lt;Use&amp;gt;" style="endArrow=open;endSize=12;dashed=1;html=1;rounded=0;fontSize=14;exitX=1;exitY=0.75;exitDx=0;exitDy=0;entryX=0.25;entryY=0;entryDx=0;entryDy=0;edgeStyle=orthogonalEdgeStyle;" edge="1" parent="1" source="oqzU9KTagzX72IuimsYK-6" target="oqzU9KTagzX72IuimsYK-10">
          <mxGeometry width="160" relative="1" as="geometry">
            <mxPoint x="1150" y="70" as="sourcePoint" />
            <mxPoint x="1310" y="70" as="targetPoint" />
            <Array as="points">
              <mxPoint x="910" y="250" />
              <mxPoint x="1028" y="250" />
            </Array>
          </mxGeometry>
        </mxCell>
        <mxCell id="oqzU9KTagzX72IuimsYK-77" value="&amp;lt;Use&amp;gt;" style="endArrow=open;endSize=12;dashed=1;html=1;rounded=0;fontSize=14;exitX=0;exitY=0.5;exitDx=0;exitDy=0;edgeStyle=orthogonalEdgeStyle;" edge="1" parent="1" source="oqzU9KTagzX72IuimsYK-7">
          <mxGeometry width="160" relative="1" as="geometry">
            <mxPoint x="500" y="40" as="sourcePoint" />
            <mxPoint x="560" y="190" as="targetPoint" />
            <Array as="points">
              <mxPoint x="800" y="160" />
              <mxPoint x="560" y="160" />
              <mxPoint x="560" y="188" />
            </Array>
          </mxGeometry>
        </mxCell>
        <mxCell id="oqzU9KTagzX72IuimsYK-78" value="&amp;lt;Use&amp;gt;" style="endArrow=open;endSize=12;dashed=1;html=1;rounded=0;fontSize=14;exitX=0;exitY=0.5;exitDx=0;exitDy=0;entryX=1;entryY=0.25;entryDx=0;entryDy=0;edgeStyle=orthogonalEdgeStyle;" edge="1" parent="1" source="oqzU9KTagzX72IuimsYK-6" target="oqzU9KTagzX72IuimsYK-9">
          <mxGeometry width="160" relative="1" as="geometry">
            <mxPoint x="810" y="195" as="sourcePoint" />
            <mxPoint x="570" y="213" as="targetPoint" />
            <Array as="points">
              <mxPoint x="800" y="220" />
              <mxPoint x="750" y="220" />
              <mxPoint x="750" y="203" />
            </Array>
          </mxGeometry>
        </mxCell>
        <mxCell id="oqzU9KTagzX72IuimsYK-80" value="ItemsTab" style="html=1;whiteSpace=wrap;" vertex="1" parent="1">
          <mxGeometry x="1010" y="-90" width="110" height="50" as="geometry" />
        </mxCell>
        <mxCell id="oqzU9KTagzX72IuimsYK-81" value="CustomersTab" style="html=1;whiteSpace=wrap;" vertex="1" parent="1">
          <mxGeometry x="500" y="-210" width="110" height="50" as="geometry" />
        </mxCell>
        <mxCell id="oqzU9KTagzX72IuimsYK-82" value="AddDiscountForm" style="html=1;whiteSpace=wrap;" vertex="1" parent="1">
          <mxGeometry x="350" y="-110" width="110" height="50" as="geometry" />
        </mxCell>
        <mxCell id="oqzU9KTagzX72IuimsYK-83" value="CartsTab" style="html=1;whiteSpace=wrap;" vertex="1" parent="1">
          <mxGeometry x="810" y="-100" width="110" height="50" as="geometry" />
        </mxCell>
        <mxCell id="oqzU9KTagzX72IuimsYK-84" value="OrdersTab" style="html=1;whiteSpace=wrap;" vertex="1" parent="1">
          <mxGeometry x="500" y="-60" width="110" height="50" as="geometry" />
        </mxCell>
        <mxCell id="oqzU9KTagzX72IuimsYK-85" value="AddressControl" style="html=1;whiteSpace=wrap;" vertex="1" parent="1">
          <mxGeometry x="304" y="10" width="110" height="50" as="geometry" />
        </mxCell>
        <mxCell id="oqzU9KTagzX72IuimsYK-89" value="" style="endArrow=open;html=1;edgeStyle=orthogonalEdgeStyle;rounded=0;align=left;verticalAlign=bottom;endSize=12;startArrow=diamondThin;startSize=14;startFill=0;labelBackgroundColor=none;exitX=0.5;exitY=1;exitDx=0;exitDy=0;entryX=0.75;entryY=0;entryDx=0;entryDy=0;" edge="1" parent="1" source="oqzU9KTagzX72IuimsYK-84" target="oqzU9KTagzX72IuimsYK-11">
          <mxGeometry relative="1" as="geometry">
            <mxPoint x="655" y="-10" as="sourcePoint" />
            <mxPoint x="815" y="-10" as="targetPoint" />
            <Array as="points">
              <mxPoint x="555" y="100" />
              <mxPoint x="663" y="100" />
            </Array>
          </mxGeometry>
        </mxCell>
        <mxCell id="oqzU9KTagzX72IuimsYK-90" value="1" style="edgeLabel;resizable=0;html=1;align=left;verticalAlign=bottom;labelBackgroundColor=none;fontSize=14;" connectable="0" vertex="1" parent="oqzU9KTagzX72IuimsYK-89">
          <mxGeometry x="-1" relative="1" as="geometry">
            <mxPoint x="15" y="20" as="offset" />
          </mxGeometry>
        </mxCell>
        <mxCell id="oqzU9KTagzX72IuimsYK-91" value="n" style="edgeLabel;resizable=0;html=1;align=right;verticalAlign=bottom;labelBackgroundColor=none;fontSize=14;" connectable="0" vertex="1" parent="oqzU9KTagzX72IuimsYK-89">
          <mxGeometry x="1" relative="1" as="geometry">
            <mxPoint x="18" y="-15" as="offset" />
          </mxGeometry>
        </mxCell>
        <mxCell id="oqzU9KTagzX72IuimsYK-92" value="" style="endArrow=open;html=1;edgeStyle=orthogonalEdgeStyle;rounded=0;align=left;verticalAlign=bottom;endSize=12;startArrow=diamondThin;startSize=14;startFill=0;labelBackgroundColor=none;entryX=0;entryY=0;entryDx=0;entryDy=0;exitX=0.818;exitY=1;exitDx=0;exitDy=0;exitPerimeter=0;" edge="1" parent="1" source="oqzU9KTagzX72IuimsYK-85" target="oqzU9KTagzX72IuimsYK-9">
          <mxGeometry relative="1" as="geometry">
            <mxPoint x="450" y="-60" as="sourcePoint" />
            <mxPoint x="439" y="10" as="targetPoint" />
          </mxGeometry>
        </mxCell>
        <mxCell id="oqzU9KTagzX72IuimsYK-93" value="1" style="edgeLabel;resizable=0;html=1;align=left;verticalAlign=bottom;labelBackgroundColor=none;fontSize=14;" connectable="0" vertex="1" parent="oqzU9KTagzX72IuimsYK-92">
          <mxGeometry x="-1" relative="1" as="geometry">
            <mxPoint x="8" y="29" as="offset" />
          </mxGeometry>
        </mxCell>
        <mxCell id="oqzU9KTagzX72IuimsYK-94" value="1" style="edgeLabel;resizable=0;html=1;align=right;verticalAlign=bottom;labelBackgroundColor=none;fontSize=14;" connectable="0" vertex="1" parent="oqzU9KTagzX72IuimsYK-92">
          <mxGeometry x="1" relative="1" as="geometry">
            <mxPoint x="20" y="-10" as="offset" />
          </mxGeometry>
        </mxCell>
        <mxCell id="oqzU9KTagzX72IuimsYK-95" value="" style="endArrow=open;html=1;edgeStyle=orthogonalEdgeStyle;rounded=0;labelBorderColor=none;fontColor=default;fontStyle=0;align=left;verticalAlign=bottom;endSize=12;startArrow=diamondThin;startSize=14;startFill=1;labelBackgroundColor=none;exitX=0;exitY=0.5;exitDx=0;exitDy=0;entryX=0.5;entryY=0;entryDx=0;entryDy=0;" edge="1" parent="1" source="oqzU9KTagzX72IuimsYK-84" target="oqzU9KTagzX72IuimsYK-85">
          <mxGeometry relative="1" as="geometry">
            <mxPoint x="360" y="-20" as="sourcePoint" />
            <mxPoint x="520" y="-20" as="targetPoint" />
          </mxGeometry>
        </mxCell>
        <mxCell id="oqzU9KTagzX72IuimsYK-96" value="1" style="edgeLabel;resizable=0;html=1;align=left;verticalAlign=bottom;labelBackgroundColor=none;fontSize=14;" connectable="0" vertex="1" parent="oqzU9KTagzX72IuimsYK-95">
          <mxGeometry x="-1" relative="1" as="geometry">
            <mxPoint x="-20" y="-5" as="offset" />
          </mxGeometry>
        </mxCell>
        <mxCell id="oqzU9KTagzX72IuimsYK-97" value="1" style="edgeLabel;resizable=0;html=1;align=right;verticalAlign=bottom;labelBackgroundColor=none;fontSize=14;" connectable="0" vertex="1" parent="oqzU9KTagzX72IuimsYK-95">
          <mxGeometry x="1" relative="1" as="geometry">
            <mxPoint x="25" y="-10" as="offset" />
          </mxGeometry>
        </mxCell>
        <mxCell id="oqzU9KTagzX72IuimsYK-98" value="" style="endArrow=open;html=1;edgeStyle=orthogonalEdgeStyle;rounded=0;labelBorderColor=none;fontColor=default;fontStyle=0;align=left;verticalAlign=bottom;endSize=12;startArrow=diamondThin;startSize=14;startFill=1;labelBackgroundColor=none;exitX=0;exitY=0.5;exitDx=0;exitDy=0;entryX=0.25;entryY=0;entryDx=0;entryDy=0;" edge="1" parent="1" source="oqzU9KTagzX72IuimsYK-81" target="oqzU9KTagzX72IuimsYK-85">
          <mxGeometry relative="1" as="geometry">
            <mxPoint x="435" y="-147.5" as="sourcePoint" />
            <mxPoint x="350" y="-42.5" as="targetPoint" />
          </mxGeometry>
        </mxCell>
        <mxCell id="oqzU9KTagzX72IuimsYK-99" value="1" style="edgeLabel;resizable=0;html=1;align=left;verticalAlign=bottom;labelBackgroundColor=none;fontSize=14;" connectable="0" vertex="1" parent="oqzU9KTagzX72IuimsYK-98">
          <mxGeometry x="-1" relative="1" as="geometry">
            <mxPoint x="-30" y="-5" as="offset" />
          </mxGeometry>
        </mxCell>
        <mxCell id="oqzU9KTagzX72IuimsYK-100" value="1" style="edgeLabel;resizable=0;html=1;align=right;verticalAlign=bottom;labelBackgroundColor=none;fontSize=14;" connectable="0" vertex="1" parent="oqzU9KTagzX72IuimsYK-98">
          <mxGeometry x="1" relative="1" as="geometry">
            <mxPoint x="13" y="-10" as="offset" />
          </mxGeometry>
        </mxCell>
        <mxCell id="oqzU9KTagzX72IuimsYK-101" value="" style="endArrow=open;html=1;edgeStyle=orthogonalEdgeStyle;rounded=0;labelBorderColor=none;fontColor=default;fontStyle=0;align=left;verticalAlign=bottom;endSize=12;startArrow=diamondThin;startSize=14;startFill=1;labelBackgroundColor=none;exitX=0;exitY=1;exitDx=0;exitDy=0;entryX=0.25;entryY=0;entryDx=0;entryDy=0;" edge="1" parent="1" source="oqzU9KTagzX72IuimsYK-81" target="oqzU9KTagzX72IuimsYK-82">
          <mxGeometry relative="1" as="geometry">
            <mxPoint x="725" y="-10" as="sourcePoint" />
            <mxPoint x="885" y="-10" as="targetPoint" />
            <Array as="points">
              <mxPoint x="378" y="-160" />
            </Array>
          </mxGeometry>
        </mxCell>
        <mxCell id="oqzU9KTagzX72IuimsYK-102" value="1" style="edgeLabel;resizable=0;html=1;align=left;verticalAlign=bottom;labelBackgroundColor=none;fontSize=14;" connectable="0" vertex="1" parent="oqzU9KTagzX72IuimsYK-101">
          <mxGeometry x="-1" relative="1" as="geometry">
            <mxPoint x="-30" as="offset" />
          </mxGeometry>
        </mxCell>
        <mxCell id="oqzU9KTagzX72IuimsYK-103" value="1" style="edgeLabel;resizable=0;html=1;align=right;verticalAlign=bottom;labelBackgroundColor=none;fontSize=14;" connectable="0" vertex="1" parent="oqzU9KTagzX72IuimsYK-101">
          <mxGeometry x="1" relative="1" as="geometry">
            <mxPoint x="23" as="offset" />
          </mxGeometry>
        </mxCell>
        <mxCell id="oqzU9KTagzX72IuimsYK-104" value="" style="endArrow=open;html=1;edgeStyle=orthogonalEdgeStyle;rounded=0;align=left;verticalAlign=bottom;endSize=12;startArrow=diamondThin;startSize=14;startFill=0;labelBackgroundColor=none;exitX=0.5;exitY=1;exitDx=0;exitDy=0;entryX=1;entryY=0.25;entryDx=0;entryDy=0;" edge="1" parent="1" source="oqzU9KTagzX72IuimsYK-80" target="oqzU9KTagzX72IuimsYK-10">
          <mxGeometry relative="1" as="geometry">
            <mxPoint x="1180" y="-275" as="sourcePoint" />
            <mxPoint x="1288" y="190" as="targetPoint" />
            <Array as="points">
              <mxPoint x="1065" y="50" />
              <mxPoint x="1180" y="50" />
              <mxPoint x="1180" y="283" />
            </Array>
          </mxGeometry>
        </mxCell>
        <mxCell id="oqzU9KTagzX72IuimsYK-105" value="1" style="edgeLabel;resizable=0;html=1;align=left;verticalAlign=bottom;labelBackgroundColor=none;fontSize=14;" connectable="0" vertex="1" parent="oqzU9KTagzX72IuimsYK-104">
          <mxGeometry x="-1" relative="1" as="geometry">
            <mxPoint x="5" y="20" as="offset" />
          </mxGeometry>
        </mxCell>
        <mxCell id="oqzU9KTagzX72IuimsYK-106" value="n" style="edgeLabel;resizable=0;html=1;align=right;verticalAlign=bottom;labelBackgroundColor=none;fontSize=14;" connectable="0" vertex="1" parent="oqzU9KTagzX72IuimsYK-104">
          <mxGeometry x="1" relative="1" as="geometry">
            <mxPoint x="18" y="-2" as="offset" />
          </mxGeometry>
        </mxCell>
        <mxCell id="oqzU9KTagzX72IuimsYK-107" value="" style="endArrow=open;html=1;edgeStyle=orthogonalEdgeStyle;rounded=0;align=left;verticalAlign=bottom;endSize=12;startArrow=diamondThin;startSize=14;startFill=0;labelBackgroundColor=none;entryX=0.682;entryY=-0.08;entryDx=0;entryDy=0;entryPerimeter=0;exitX=0.25;exitY=1;exitDx=0;exitDy=0;" edge="1" parent="1" source="oqzU9KTagzX72IuimsYK-83" target="oqzU9KTagzX72IuimsYK-9">
          <mxGeometry relative="1" as="geometry">
            <mxPoint x="730" as="sourcePoint" />
            <mxPoint x="890" as="targetPoint" />
            <Array as="points">
              <mxPoint x="838" y="20" />
              <mxPoint x="525" y="20" />
            </Array>
          </mxGeometry>
        </mxCell>
        <mxCell id="oqzU9KTagzX72IuimsYK-108" value="1" style="edgeLabel;resizable=0;html=1;align=left;verticalAlign=bottom;labelBackgroundColor=none;fontSize=14;" connectable="0" vertex="1" parent="oqzU9KTagzX72IuimsYK-107">
          <mxGeometry x="-1" relative="1" as="geometry">
            <mxPoint x="13" y="30" as="offset" />
          </mxGeometry>
        </mxCell>
        <mxCell id="oqzU9KTagzX72IuimsYK-109" value="n" style="edgeLabel;resizable=0;html=1;align=right;verticalAlign=bottom;labelBackgroundColor=none;fontSize=14;" connectable="0" vertex="1" parent="oqzU9KTagzX72IuimsYK-107">
          <mxGeometry x="1" relative="1" as="geometry">
            <mxPoint x="19" y="-8" as="offset" />
          </mxGeometry>
        </mxCell>
        <mxCell id="oqzU9KTagzX72IuimsYK-110" value="&amp;lt;Use&amp;gt;" style="endArrow=open;endSize=12;dashed=1;html=1;rounded=0;fontSize=14;exitX=1;exitY=0.5;exitDx=0;exitDy=0;entryX=0;entryY=0;entryDx=0;entryDy=0;edgeStyle=orthogonalEdgeStyle;" edge="1" parent="1" source="oqzU9KTagzX72IuimsYK-5" target="oqzU9KTagzX72IuimsYK-81">
          <mxGeometry width="160" relative="1" as="geometry">
            <mxPoint x="180" y="-120" as="sourcePoint" />
            <mxPoint x="340" y="-120" as="targetPoint" />
            <Array as="points">
              <mxPoint x="310" y="-210" />
            </Array>
          </mxGeometry>
        </mxCell>
        <mxCell id="oqzU9KTagzX72IuimsYK-111" value="" style="endArrow=open;html=1;edgeStyle=orthogonalEdgeStyle;rounded=0;labelBorderColor=none;fontColor=default;fontStyle=0;align=left;verticalAlign=bottom;endSize=12;startArrow=diamondThin;startSize=14;startFill=1;labelBackgroundColor=none;exitX=1;exitY=0.25;exitDx=0;exitDy=0;entryX=0.5;entryY=0;entryDx=0;entryDy=0;" edge="1" parent="1" source="oqzU9KTagzX72IuimsYK-4" target="oqzU9KTagzX72IuimsYK-80">
          <mxGeometry relative="1" as="geometry">
            <mxPoint x="810" y="-230" as="sourcePoint" />
            <mxPoint x="970" y="-230" as="targetPoint" />
          </mxGeometry>
        </mxCell>
        <mxCell id="oqzU9KTagzX72IuimsYK-112" value="1" style="edgeLabel;resizable=0;html=1;align=left;verticalAlign=bottom;labelBackgroundColor=none;fontSize=14;" connectable="0" vertex="1" parent="oqzU9KTagzX72IuimsYK-111">
          <mxGeometry x="-1" relative="1" as="geometry">
            <mxPoint x="7" y="-2" as="offset" />
          </mxGeometry>
        </mxCell>
        <mxCell id="oqzU9KTagzX72IuimsYK-113" value="1" style="edgeLabel;resizable=0;html=1;align=right;verticalAlign=bottom;labelBackgroundColor=none;fontSize=14;" connectable="0" vertex="1" parent="oqzU9KTagzX72IuimsYK-111">
          <mxGeometry x="1" relative="1" as="geometry">
            <mxPoint x="25" y="-10" as="offset" />
          </mxGeometry>
        </mxCell>
        <mxCell id="oqzU9KTagzX72IuimsYK-114" value="" style="endArrow=open;html=1;edgeStyle=orthogonalEdgeStyle;rounded=0;align=left;verticalAlign=bottom;endSize=12;startArrow=diamondThin;startSize=14;startFill=0;labelBackgroundColor=none;exitX=1;exitY=0.75;exitDx=0;exitDy=0;entryX=0.5;entryY=0;entryDx=0;entryDy=0;" edge="1" parent="1" source="oqzU9KTagzX72IuimsYK-4" target="oqzU9KTagzX72IuimsYK-13">
          <mxGeometry relative="1" as="geometry">
            <mxPoint x="110" y="-90" as="sourcePoint" />
            <mxPoint x="970" y="-10" as="targetPoint" />
            <Array as="points">
              <mxPoint x="980" y="-322" />
              <mxPoint x="980" y="60" />
              <mxPoint x="882" y="60" />
            </Array>
          </mxGeometry>
        </mxCell>
        <mxCell id="oqzU9KTagzX72IuimsYK-115" value="1" style="edgeLabel;resizable=0;html=1;align=left;verticalAlign=bottom;labelBackgroundColor=none;fontSize=14;" connectable="0" vertex="1" parent="oqzU9KTagzX72IuimsYK-114">
          <mxGeometry x="-1" relative="1" as="geometry">
            <mxPoint x="7" as="offset" />
          </mxGeometry>
        </mxCell>
        <mxCell id="oqzU9KTagzX72IuimsYK-116" value="1" style="edgeLabel;resizable=0;html=1;align=right;verticalAlign=bottom;labelBackgroundColor=none;fontSize=14;" connectable="0" vertex="1" parent="oqzU9KTagzX72IuimsYK-114">
          <mxGeometry x="1" relative="1" as="geometry">
            <mxPoint x="18" y="-10" as="offset" />
          </mxGeometry>
        </mxCell>
        <mxCell id="oqzU9KTagzX72IuimsYK-117" value="" style="endArrow=open;html=1;edgeStyle=orthogonalEdgeStyle;rounded=0;labelBorderColor=none;fontColor=default;fontStyle=0;align=left;verticalAlign=bottom;endSize=12;startArrow=diamondThin;startSize=14;startFill=1;labelBackgroundColor=none;exitX=0.75;exitY=1;exitDx=0;exitDy=0;entryX=0.5;entryY=0;entryDx=0;entryDy=0;" edge="1" parent="1" source="oqzU9KTagzX72IuimsYK-4" target="oqzU9KTagzX72IuimsYK-83">
          <mxGeometry relative="1" as="geometry">
            <mxPoint x="800" y="-210" as="sourcePoint" />
            <mxPoint x="960" y="-210" as="targetPoint" />
          </mxGeometry>
        </mxCell>
        <mxCell id="oqzU9KTagzX72IuimsYK-118" value="1" style="edgeLabel;resizable=0;html=1;align=left;verticalAlign=bottom;labelBackgroundColor=none;fontSize=14;" connectable="0" vertex="1" parent="oqzU9KTagzX72IuimsYK-117">
          <mxGeometry x="-1" relative="1" as="geometry">
            <mxPoint x="8" y="40" as="offset" />
          </mxGeometry>
        </mxCell>
        <mxCell id="oqzU9KTagzX72IuimsYK-119" value="1" style="edgeLabel;resizable=0;html=1;align=right;verticalAlign=bottom;labelBackgroundColor=none;fontSize=14;" connectable="0" vertex="1" parent="oqzU9KTagzX72IuimsYK-117">
          <mxGeometry x="1" relative="1" as="geometry">
            <mxPoint x="25" y="-10" as="offset" />
          </mxGeometry>
        </mxCell>
        <mxCell id="oqzU9KTagzX72IuimsYK-126" value="" style="endArrow=open;html=1;edgeStyle=orthogonalEdgeStyle;rounded=0;labelBorderColor=none;fontColor=default;fontStyle=0;align=left;verticalAlign=bottom;endSize=12;startArrow=diamondThin;startSize=14;startFill=1;labelBackgroundColor=none;entryX=0.5;entryY=0;entryDx=0;entryDy=0;exitX=0.182;exitY=1.04;exitDx=0;exitDy=0;exitPerimeter=0;" edge="1" parent="1" source="oqzU9KTagzX72IuimsYK-4" target="oqzU9KTagzX72IuimsYK-84">
          <mxGeometry relative="1" as="geometry">
            <mxPoint x="730" y="-160" as="sourcePoint" />
            <mxPoint x="815" y="-120" as="targetPoint" />
            <Array as="points">
              <mxPoint x="730" y="-100" />
              <mxPoint x="555" y="-100" />
            </Array>
          </mxGeometry>
        </mxCell>
        <mxCell id="oqzU9KTagzX72IuimsYK-127" value="1" style="edgeLabel;resizable=0;html=1;align=left;verticalAlign=bottom;labelBackgroundColor=none;fontSize=14;" connectable="0" vertex="1" parent="oqzU9KTagzX72IuimsYK-126">
          <mxGeometry x="-1" relative="1" as="geometry">
            <mxPoint x="10" y="28" as="offset" />
          </mxGeometry>
        </mxCell>
        <mxCell id="oqzU9KTagzX72IuimsYK-128" value="1" style="edgeLabel;resizable=0;html=1;align=right;verticalAlign=bottom;labelBackgroundColor=none;fontSize=14;" connectable="0" vertex="1" parent="oqzU9KTagzX72IuimsYK-126">
          <mxGeometry x="1" relative="1" as="geometry">
            <mxPoint x="25" as="offset" />
          </mxGeometry>
        </mxCell>
        <mxCell id="oqzU9KTagzX72IuimsYK-130" value="" style="endArrow=open;html=1;edgeStyle=orthogonalEdgeStyle;rounded=0;labelBorderColor=none;fontColor=default;fontStyle=0;align=left;verticalAlign=bottom;endSize=12;startArrow=diamondThin;startSize=14;startFill=1;labelBackgroundColor=none;entryX=0.5;entryY=0;entryDx=0;entryDy=0;exitX=0;exitY=0.75;exitDx=0;exitDy=0;" edge="1" parent="1" source="oqzU9KTagzX72IuimsYK-4" target="oqzU9KTagzX72IuimsYK-81">
          <mxGeometry relative="1" as="geometry">
            <mxPoint x="625" y="-550" as="sourcePoint" />
            <mxPoint x="450" y="-302" as="targetPoint" />
            <Array as="points">
              <mxPoint x="555" y="-322" />
            </Array>
          </mxGeometry>
        </mxCell>
        <mxCell id="oqzU9KTagzX72IuimsYK-131" value="1" style="edgeLabel;resizable=0;html=1;align=left;verticalAlign=bottom;labelBackgroundColor=none;fontSize=14;" connectable="0" vertex="1" parent="oqzU9KTagzX72IuimsYK-130">
          <mxGeometry x="-1" relative="1" as="geometry">
            <mxPoint x="-20" y="-7" as="offset" />
          </mxGeometry>
        </mxCell>
        <mxCell id="oqzU9KTagzX72IuimsYK-132" value="1" style="edgeLabel;resizable=0;html=1;align=right;verticalAlign=bottom;labelBackgroundColor=none;fontSize=14;" connectable="0" vertex="1" parent="oqzU9KTagzX72IuimsYK-130">
          <mxGeometry x="1" relative="1" as="geometry">
            <mxPoint x="25" as="offset" />
          </mxGeometry>
        </mxCell>
      </root>
    </mxGraphModel>
  </diagram>
</mxfile>
